<?xml version="1.0" encoding="UTF-8"?>
<svg width="40px" height="40px" viewBox="0 0 40 40" version="1.1" xmlns="http://www.w3.org/2000/svg" xmlns:xlink="http://www.w3.org/1999/xlink">
    <title>Logo</title>
    <g id="Logo" stroke="none" stroke-width="1" fill="none" fill-rule="evenodd">
        <g id="dark" transform="translate(5.000000, 3.000000)" fill="#FFFFFF" fill-rule="nonzero">
            <path d="M0,35 L0,29.5652174 L9.90034783,29.5652174 C11.5540435,29.5652174 11.9131087,30.7908696 11.9131087,31.5217391 L11.9131087,35 L0,35 Z M29.0978261,26.9913043 C29.4130435,31.0352174 29.4130435,32.9308696 29.4130435,35 L20.0496304,35 C20.0496304,34.5493478 20.0576739,34.1369565 20.0658261,33.718913 C20.0911957,32.4191304 20.1176304,31.063913 19.9068913,28.3269565 C19.6283696,24.32 17.901587,23.4295652 14.7265,23.4295652 L11.9135,23.4295652 L0,23.4295652 L0,16.1391304 L15.1721304,16.1391304 C19.1827609,16.1391304 21.1880652,14.92 21.1880652,11.6921739 C21.1880652,8.85391304 19.1827609,7.13391304 15.1721304,7.13391304 L0,7.13391304 L0,0 L16.8432174,0 C25.9228261,0 30.4347826,4.28521739 30.4347826,11.1304348 C30.4347826,16.2504348 27.2597826,19.5895652 22.9706522,20.146087 C26.5913043,20.8695652 28.7080435,22.9286957 29.0978261,26.9913043 Z" id="Shape"></path>
        </g>
    </g>
</svg>