<svg xmlns="http://www.w3.org/2000/svg" width="16" height="16" viewBox="0 0 40 40">
    <path fill="#FFF" fill-rule="nonzero" d="M5 38v-5.435h9.9c1.654 0 2.013 1.226 2.013 1.957V38H5Zm29.098-8.009c.315 4.044.315 5.94.315 8.009H25.05c0-.45.008-.863.016-1.281.025-1.3.052-2.655-.16-5.392-.278-4.007-2.004-4.897-5.18-4.897H5v-7.29h15.172c4.01 0 6.016-1.22 6.016-4.448 0-2.838-2.005-4.558-6.016-4.558H5V3h16.843c9.08 0 13.592 4.285 13.592 11.13 0 5.12-3.175 8.46-7.464 9.016 3.62.724 5.737 2.783 6.127 6.845Z"/>
</svg>
