<?xml version="1.0" encoding="UTF-8"?>
<svg width="16px" height="16px" viewBox="0 0 16 16" version="1.1" xmlns="http://www.w3.org/2000/svg" xmlns:xlink="http://www.w3.org/1999/xlink">
    <title>File</title>
    <g id="File" stroke="none" stroke-width="1" fill="none" fill-rule="evenodd">
        <path d="M13,1 L13,15 L3,15 L3,6 L8,6 L8,1 L13,1 Z M7,1 L7,5 L3,5 L7,1 Z" id="Combined-Shape" fill="#9AA7B0" fill-rule="nonzero"></path>
        <g id="light" transform="translate(9.000000, 8.000000)" fill="#000000" fill-rule="nonzero">
            <path d="M0,8 L0,6.75776398 L2.26293665,6.75776398 C2.64092422,6.75776398 2.72299627,7.03791304 2.72299627,7.20496894 L2.72299627,8 L0,8 Z M6.65093168,6.16944099 C6.72298137,7.09376398 6.72298137,7.5270559 6.72298137,8 L4.58277267,8 C4.58277267,7.89699379 4.58461118,7.80273292 4.58647453,7.70718012 C4.59227329,7.41008696 4.59831553,7.10032298 4.55014658,6.47473292 C4.48648447,5.55885714 4.0917913,5.35532919 3.36605714,5.35532919 L2.72308571,5.35532919 L0,5.35532919 L0,3.6889441 L3.46791553,3.6889441 C4.38463106,3.6889441 4.84298634,3.41028571 4.84298634,2.67249689 C4.84298634,2.02375155 4.38463106,1.6306087 3.46791553,1.6306087 L0,1.6306087 L0,0 L3.84987826,0 C5.92521739,0 6.95652174,0.979478261 6.95652174,2.54409938 C6.95652174,3.71438509 6.23080745,4.47761491 5.25043478,4.60481988 C6.07801242,4.77018634 6.56183851,5.24084472 6.65093168,6.16944099 Z" id="Shape"></path>
        </g>
    </g>
</svg>