<svg xmlns="http://www.w3.org/2000/svg" width="16" height="16">
    <g fill="none" fill-rule="nonzero">
        <path fill="#9AA7B0" d="M13 1v14H3V6h5V1h5ZM7 1v4H3l4-4Z"/>
        <path fill="#000" d="M9 16v-1.242h2.263c.378 0 .46.28.46.447V16H9Zm6.65-1.83c.073.924.073 1.357.073 1.83h-2.14c0-.103.002-.197.003-.293.006-.297.012-.607-.036-1.232-.064-.916-.458-1.12-1.184-1.12H9V11.69h3.468c.917 0 1.375-.279 1.375-1.017 0-.648-.458-1.041-1.375-1.041H9V8h3.85c2.075 0 3.107.98 3.107 2.544 0 1.17-.726 1.934-1.707 2.06.828.166 1.312.637 1.4 1.565Z"/>
    </g>
</svg>
